<?xml version="1.0" standalone="no"?>
<!DOCTYPE svg PUBLIC "-//W3C//DTD SVG 20010904//EN"
 "http://www.w3.org/TR/2001/REC-SVG-20010904/DTD/svg10.dtd">
<svg version="1.0" xmlns="http://www.w3.org/2000/svg"
 width="750.000000pt" height="1000.000000pt" viewBox="0 0 750.000000 1000.000000"
 preserveAspectRatio="xMidYMid meet">

<g transform="translate(0.000000,1000.000000) scale(0.100000,-0.100000)"
fill="#000000" stroke="none">
<path d="M3769 7836 c-131 -19 -210 -40 -374 -99 -176 -62 -266 -107 -429
-214 -202 -132 -327 -268 -394 -427 -24 -55 -26 -74 -27 -196 0 -132 1 -137
39 -243 l39 -108 -21 -38 c-22 -39 -29 -81 -14 -81 15 0 257 112 272 126 12
12 9 24 -25 91 -39 75 -40 79 -43 198 -3 101 0 136 17 199 32 117 75 192 149
264 106 103 223 152 362 152 145 0 255 -46 349 -145 78 -82 106 -150 106 -255
0 -78 -3 -91 -37 -161 -27 -55 -54 -91 -95 -129 -69 -63 -64 -70 63 -70 154 0
283 -54 408 -171 84 -78 126 -151 175 -297 39 -119 47 -224 32 -412 -31 -383
-82 -642 -189 -965 -45 -133 -47 -146 -46 -245 1 -82 5 -117 22 -160 41 -104
126 -197 264 -291 65 -45 259 -149 276 -149 8 0 10 34 6 123 -5 91 -2 140 10
195 18 86 71 187 121 230 38 34 118 62 175 62 91 0 234 -65 301 -137 66 -70
84 -129 84 -273 0 -133 -6 -150 -124 -379 -107 -206 -129 -261 -142 -354 -17
-113 3 -215 64 -341 66 -135 170 -266 193 -243 3 3 7 41 9 84 5 145 65 272
186 392 73 72 176 131 317 181 62 22 120 44 130 49 128 70 258 455 361 1076
56 333 68 537 52 853 -20 393 -59 617 -146 838 -69 175 -112 243 -235 365
-108 107 -403 336 -600 465 -187 122 -449 247 -655 310 -82 25 -97 34 -163 95
-93 87 -269 179 -410 215 -121 31 -279 39 -413 20z"/>
<path d="M3258 7390 c-211 -36 -366 -278 -330 -517 19 -125 76 -245 121 -251
25 -4 245 44 275 60 16 9 12 13 -31 38 -90 52 -142 136 -143 229 0 66 29 132
71 162 38 27 47 19 21 -18 -70 -101 -42 -229 67 -300 83 -55 162 -54 253 1
165 100 180 347 29 494 -55 54 -105 80 -190 98 -73 15 -75 15 -143 4z"/>
<path d="M1782 5243 c-50 -24 -102 -107 -102 -162 0 -39 5 -49 43 -85 45 -43
230 -141 251 -133 7 3 19 26 26 51 l13 46 -51 47 c-69 65 -106 145 -93 202 5
22 6 42 3 46 -11 10 -57 4 -90 -12z"/>
<path d="M2213 5200 c-50 -25 -73 -68 -80 -149 -5 -54 -3 -60 26 -94 61 -69
146 -103 481 -192 258 -69 436 -129 514 -175 67 -39 86 -47 86 -33 0 11 -52
96 -91 148 -92 124 -159 165 -433 266 -389 144 -411 155 -411 210 0 29 -4 34
-25 37 -14 1 -44 -7 -67 -18z"/>
<path d="M1662 3781 c-40 -19 -45 -20 -68 -4 -57 37 -222 -26 -324 -123 -129
-122 -163 -220 -164 -469 -1 -178 8 -221 70 -353 67 -140 217 -249 377 -274
71 -11 187 -4 187 11 0 4 -11 22 -25 41 -14 19 -30 50 -35 70 -12 41 -13 120
-2 120 4 0 41 -52 82 -116 150 -234 310 -339 515 -338 167 0 312 69 451 216
66 70 172 216 209 287 l17 34 -26 -7 c-14 -3 -37 -9 -51 -12 -76 -19 -147 36
-216 169 -49 95 -182 328 -212 372 -95 136 -203 240 -317 303 -145 80 -376
116 -468 73z"/>
</g>
</svg>
